PathFileType	4	(X/Y/Z)	/Users/itak/Documents/Research/Walk-IL/dataset/trc/00379_00012.trc
DataRate	CameraRate	NumFrames	NumMarkers	Units	OrigDataRate	OrigDataStartFrame	OrigNumFrames
100.000000	100.000000	4	56	mm	100.000000	0	354
Frame#	Time	RPSI			LPSI			L3			STRN			T10			C7			CLAV			RBAK			LBAK			LSHO			LUPA			LAEL			LAOL			LWTS			LWPS			LFRA			LIFD			LHPS			LHTS			RSHO			RUPA			RAEL			RAOL			RWTS			RWPS			RFRA			RIFD			RBHD			LFHD			RFHD			LBHD			LHIP			RASI			LASI			LKNE			LTHI			LANK			LTIP			LTOE			LMT1			LMT5			LHEE			RKNE			RTHI			RANK			RTIP			RTOE			RMT1			RMT5			RHEE			RHTS			RHPS			RHIP			*53			*54			*55			
		X1	Y1	Z1	X2	Y2	Z2	X3	Y3	Z3	X4	Y4	Z4	X5	Y5	Z5	X6	Y6	Z6	X7	Y7	Z7	X8	Y8	Z8	X9	Y9	Z9	X10	Y10	Z10	X11	Y11	Z11	X12	Y12	Z12	X13	Y13	Z13	X14	Y14	Z14	X15	Y15	Z15	X16	Y16	Z16	X17	Y17	Z17	X18	Y18	Z18	X19	Y19	Z19	X20	Y20	Z20	X21	Y21	Z21	X22	Y22	Z22	X23	Y23	Z23	X24	Y24	Z24	X25	Y25	Z25	X26	Y26	Z26	X27	Y27	Z27	X28	Y28	Z28	X29	Y29	Z29	X30	Y30	Z30	X31	Y31	Z31	X32	Y32	Z32	X33	Y33	Z33	X34	Y34	Z34	X35	Y35	Z35	X36	Y36	Z36	X37	Y37	Z37	X38	Y38	Z38	X39	Y39	Z39	X40	Y40	Z40	X41	Y41	Z41	X42	Y42	Z42	X43	Y43	Z43	X44	Y44	Z44	X45	Y45	Z45	X46	Y46	Z46	X47	Y47	Z47	X48	Y48	Z48	X49	Y49	Z49	X50	Y50	Z50	X51	Y51	Z51	X52	Y52	Z52	X53	Y53	Z53	X54	Y54	Z54	X55	Y55	Z55	X56	Y56	Z56	

1	0	-1575.973388671875	989.0630493164062	190.0299072265625	-1581.266723632812	984.5259399414062	58.07560729980469	-1579.235473632812	1054.6015625	127.7558364868164	-1348.106323242188	1215.323364257812	132.5786895751953	-1595.544799804688	1158.767700195312	124.8074111938477	-1562.713500976562	1408.945556640625	120.5276565551758	-1405.149658203125	1332.501220703125	130.7308044433594	-1603.68505859375	1260.923583984375	184.8576202392578	-1571.7294921875	1371.48388671875	15.41567993164062	-1483.088989257812	1389.2666015625	-31.93165969848633	-1500.1630859375	1272.8994140625	-105.088508605957	-1472.651977539062	1075.308227539062	-128.6255340576172	-1533.557861328125	1052.892578125	-74.06184387207031	-1372.53955078125	866.9249877929688	-68.49449920654297	-1413.94677734375	847.6055908203125	-136.4469299316406	-1448.37353515625	971.5470581054688	-134.6406860351562	-1360.823120117188	687.2374877929688	-63.72555923461914	-1393.762084960938	763.9906005859375	-122.4077987670898	-1344.708862304688	771.2017822265625	-82.77543640136719	-1510.075927734375	1386.064086914062	280.5299377441406	-1524.223022460938	1319.891845703125	337.5953063964844	-1517.187255859375	1058.406372070312	379.3820495605469	-1539.408569335938	1049.168212890625	287.3384704589844	-1382.732299804688	848.8700561523438	345.22509765625	-1421.697265625	836.138671875	406.7875061035156	-1488.7099609375	994.0983276367188	395.2949523925781	-1376.837524414062	677.08349609375	344.0458374023438	-1515.831909179688	1602.725708007812	205.8099822998047	-1369.502685546875	1594.232666015625	71.31832885742188	-1382.580322265625	1600.439331054688	193.1003723144531	-1515.860595703125	1594.514526367188	44.02713775634766	-1493.598754882812	971.3155517578125	-55.62051010131836	-1359.87548828125	969.7350463867188	247.9063873291016	-1379.576904296875	966.5332641601562	-16.48556137084961	-1452.126098632812	475.98779296875	-43.75106430053711	-1459.297119140625	618.7584838867188	-54.07575607299805	-1572.600952148438	40.26990127563477	-11.60503482818604	-1514.69482421875	246.3606567382812	-40.72800827026367	-1361.882446289062	62.57308197021484	50.24205017089844	-1439.591064453125	54.37116241455078	82.20410919189453	-1445.622924804688	43.31715393066406	-21.62291145324707	-1611.284057617188	39.38976669311523	45.9303092956543	-1457.796508789062	471.3860473632812	269.1816711425781	-1418.971435546875	731.7412109375	300.0801391601562	-1545.578979492188	58.06322479248047	238.0493927001953	-1457.092041015625	343.8456420898438	252.3982238769531	-1368.685180664062	43.09743881225586	176.5839233398438	-1443.49462890625	44.42679595947266	147.1084136962891	-1461.808349609375	48.19320678710938	244.808349609375	-1619.723388671875	45.57562255859375	185.6732482910156	-1358.947998046875	745.2318115234375	364.4285888671875	-1411.9619140625	747.2638549804688	406.2532653808594	-1491.756225585938	960.32421875	304.0951843261719	nan	nan	nan	nan	nan	nan	nan	nan	nan	
2	0.01	-1575.277954101562	988.89892578125	190.3802947998047	-1580.430908203125	984.3803100585938	58.37335968017578	-1578.418701171875	1054.520874023438	128.1103515625	-1347.261474609375	1215.108032226562	133.2251129150391	-1594.723754882812	1158.631591796875	125.2328796386719	-1561.745849609375	1408.873779296875	120.8885269165039	-1404.261108398438	1332.320922851562	131.3629760742188	-1602.87451171875	1260.82470703125	185.1301422119141	-1570.722900390625	1371.513549804688	15.70984077453613	-1481.923583984375	1389.09423828125	-31.42351341247559	-1498.983032226562	1272.704956054688	-104.5212554931641	-1472.070678710938	1075.16259765625	-128.3455505371094	-1532.807373046875	1052.797241210938	-73.58159637451172	-1371.436401367188	866.9376220703125	-68.927001953125	-1413.490234375	847.3628540039062	-136.3150482177734	-1447.821655273438	971.378662109375	-134.4448699951172	-1359.670654296875	687.11181640625	-63.74917984008789	-1393.1904296875	763.8154296875	-122.2028732299805	-1343.8076171875	771.1400146484375	-83.06107330322266	-1509.364868164062	1385.848999023438	280.9940185546875	-1523.64697265625	1319.682373046875	338.005859375	-1516.877807617188	1058.217041015625	379.6591491699219	-1538.900390625	1048.989990234375	287.6316223144531	-1382.540649414062	848.58203125	345.7379455566406	-1421.6953125	835.7969360351562	407.2638549804688	-1488.4921875	993.8960571289062	395.692138671875	-1376.94189453125	676.6500244140625	344.6385498046875	-1514.894775390625	1602.64501953125	206.2642059326172	-1368.593627929688	1594.087890625	71.60769653320312	-1381.600463867188	1600.362548828125	193.3930969238281	-1515.000244140625	1594.3095703125	44.40399932861328	-1492.7744140625	971.2543334960938	-55.28621292114258	-1359.097534179688	969.4256591796875	248.3733062744141	-1378.7177734375	966.3988037109375	-16.00647735595703	-1451.500244140625	475.9566345214844	-43.55392837524414	-1458.487182617188	618.7212524414062	-53.78821563720703	-1572.65869140625	40.23384475708008	-11.73780345916748	-1514.439453125	246.3932800292969	-40.71596908569336	-1362.06396484375	62.9019775390625	50.15449905395508	-1439.758544921875	54.44851684570312	82.21054077148438	-1445.684326171875	43.34148025512695	-21.68879127502441	-1611.364501953125	39.40042877197266	45.76847839355469	-1456.924926757812	471.0753173828125	269.1237487792969	-1418.391479492188	731.4129638671875	300.3367614746094	-1545.563232421875	58.10064697265625	238.0161285400391	-1456.381591796875	343.568115234375	252.1785736083984	-1368.705078125	43.07499313354492	176.4448089599609	-1443.521850585938	44.33606719970703	147.0129089355469	-1461.8037109375	48.2733039855957	244.7489471435547	-1619.716674804688	45.5445556640625	185.6811370849609	-1359.17822265625	744.7753295898438	365.0604553222656	-1411.999389648438	746.9813842773438	406.7278442382812	-1491.1376953125	960.01708984375	304.4050903320312	nan	nan	nan	nan	nan	nan	nan	nan	nan	
3	0.02	-1574.3349609375	988.6868896484375	190.8626098632812	-1579.344604492188	984.2072143554688	58.79605484008789	-1577.354858398438	1054.407470703125	128.5551147460938	-1346.153564453125	1214.8515625	134.0552673339844	-1593.669921875	1158.480590820312	125.7655334472656	-1560.498291015625	1408.780029296875	121.3634796142578	-1403.117309570312	1332.096435546875	132.1633605957031	-1601.817504882812	1260.700927734375	185.5029602050781	-1569.415649414062	1371.521606445312	16.11326599121094	-1480.43359375	1388.875610351562	-30.77068519592285	-1497.459106445312	1272.46875	-103.7986679077148	-1471.265869140625	1074.99169921875	-127.9536437988281	-1531.822143554688	1052.675537109375	-72.97934722900391	-1369.992919921875	866.9559326171875	-69.39993286132812	-1412.829711914062	847.0680541992188	-136.1322937011719	-1447.07470703125	971.173583984375	-134.1932983398438	-1358.166748046875	686.9474487304688	-63.83115768432617	-1392.387817382812	763.6023559570312	-121.9602584838867	-1342.574584960938	771.0757446289062	-83.41724395751953	-1508.431396484375	1385.592895507812	281.59423828125	-1522.8857421875	1319.430419921875	338.5476379394531	-1516.451416015625	1057.982299804688	380.0396728515625	-1538.204956054688	1048.776245117188	287.9998474121094	-1382.31494140625	848.1798706054688	346.3978271484375	-1421.694213867188	835.37158203125	407.8740844726562	-1488.1943359375	993.6353149414062	396.18798828125	-1377.065307617188	676.116455078125	345.4172668457031	-1513.68359375	1602.537109375	206.8321685791016	-1367.422485351562	1593.899536132812	71.99525451660156	-1380.33837890625	1600.261474609375	193.7929992675781	-1513.876098632812	1594.048950195312	44.89536285400391	-1491.691772460938	971.1779174804688	-54.83679962158203	-1358.09716796875	969.0603637695312	248.9620666503906	-1377.55810546875	966.2457275390625	-15.39997005462646	-1450.667358398438	475.89990234375	-43.2885856628418	-1457.44091796875	618.6719970703125	-53.40150451660156	-1572.734985351562	40.18532943725586	-11.91967296600342	-1514.112426757812	246.4373931884766	-40.69497299194336	-1362.292236328125	63.28781127929688	50.06280136108398	-1439.983764648438	54.57223510742188	82.22080230712891	-1445.746459960938	43.34887313842773	-21.77052116394043	-1611.468505859375	39.40198135375977	45.55217361450195	-1455.853637695312	470.7048645019531	269.0842895507812	-1417.6015625	731.0035400390625	300.6728210449219	-1545.5458984375	58.14300918579102	237.9804534912109	-1455.519775390625	343.2183532714844	251.9440460205078	-1368.742431640625	43.04634857177734	176.2738037109375	-1443.556030273438	44.23984146118164	146.9078521728516	-1461.803588867188	48.36904525756836	244.6822204589844	-1619.718017578125	45.51125335693359	185.690185546875	-1359.465698242188	744.2093505859375	365.857666015625	-1412.087036132812	746.60302734375	407.3440856933594	-1490.259399414062	959.6183471679688	304.8287353515625	nan	nan	nan	nan	nan	nan	nan	nan	nan	
4	0.03	-1573.150634765625	988.4353637695312	191.4730224609375	-1578.036254882812	984.0213012695312	59.34664154052734	-1576.06494140625	1054.2646484375	129.0817413330078	-1344.805541992188	1214.5703125	135.0426788330078	-1592.412719726562	1158.321411132812	126.3918075561523	-1559.005249023438	1408.665771484375	121.944709777832	-1401.747802734375	1331.837646484375	133.1028594970703	-1600.54052734375	1260.558471679688	185.9741516113281	-1567.841064453125	1371.494506835938	16.62471008300781	-1478.66650390625	1388.619995117188	-29.99173355102539	-1495.638793945312	1272.205200195312	-102.9467391967773	-1470.240600585938	1074.808959960938	-127.450553894043	-1530.619873046875	1052.531494140625	-72.28032684326172	-1368.255981445312	866.9786376953125	-69.86544799804688	-1411.953491210938	846.7427368164062	-135.9035491943359	-1446.1337890625	970.9449462890625	-133.8922119140625	-1356.362548828125	686.7579956054688	-63.99062347412109	-1391.346069335938	763.3662719726562	-121.6990280151367	-1341.04345703125	771.008056640625	-83.82276916503906	-1507.291748046875	1385.313720703125	282.3158569335938	-1521.94921875	1319.152099609375	339.2103881835938	-1515.906982421875	1057.712280273438	380.5237731933594	-1537.326171875	1048.5390625	288.43408203125	-1382.064697265625	847.6641235351562	347.1875610351562	-1421.6884765625	834.88037109375	408.5985412597656	-1487.814575195312	993.3230590820312	396.7645568847656	-1377.219360351562	675.5039672851562	346.3541259765625	-1512.22900390625	1602.40283203125	207.4889831542969	-1366.0205078125	1593.671508789062	72.47659301757812	-1378.83056640625	1600.138305664062	194.2970886230469	-1512.513305664062	1593.740844726562	45.49059677124023	-1490.375854492188	971.0892333984375	-54.27862548828125	-1356.89599609375	968.6636962890625	249.6500091552734	-1376.105590820312	966.0897827148438	-14.69127941131592	-1449.6376953125	475.8124084472656	-42.95592498779297	-1456.180419921875	618.6109619140625	-52.91663360595703	-1572.829345703125	40.12331390380859	-12.15135288238525	-1513.722412109375	246.4942016601562	-40.66117477416992	-1362.552978515625	63.69549179077148	49.97891616821289	-1440.260375976562	54.75062561035156	82.23087310791016	-1445.795654296875	43.32476043701172	-21.86483955383301	-1611.591186523438	39.38820266723633	45.28544616699219	-1454.63720703125	470.2946472167969	269.0782470703125	-1416.592529296875	730.5308837890625	301.0786743164062	-1545.531616210938	58.18564987182617	237.9466552734375	-1454.554077148438	342.8139953613281	251.726318359375	-1368.800903320312	43.01236343383789	176.0791778564453	-1443.595581054688	44.14847946166992	146.8009490966797	-1461.810180664062	48.47362899780273	244.6119689941406	-1619.73388671875	45.48092269897461	185.698974609375	-1359.767700195312	743.5570068359375	366.7922668457031	-1412.233520507812	746.1370239257812	408.0826110839844	-1489.12353515625	959.1576538085938	305.3653564453125	nan	nan	nan	nan	nan	nan	nan	nan	nan	
